Coordinates
version=1
nRows=24
nColumns=24
inDegrees=yes

Units are S.I. units (second, meters, Newtons, ...)
Angles are in degrees.

endheader
time	pelvis_tilt	pelvis_list	pelvis_rotation	pelvis_tx	pelvis_ty	pelvis_tz	hip_flexion_r	hip_adduction_r	hip_rotation_r	knee_angle_r	ankle_angle_r	subtalar_angle_r	mtp_angle_r	hip_flexion_l	hip_adduction_l	hip_rotation_l	knee_angle_l	ankle_angle_l	subtalar_angle_l	mtp_angle_l	lumbar_extension	lumbar_bending	lumbar_rotation
      4.57000000	     -7.13091609	     -1.61872567	      9.86662817	     -1.83974190	     -0.02309486	     -0.32587342	     31.66207446	     -3.82874890	     -9.03258133	    -12.46089399	     -2.00917484	      6.67276523	     14.17153678	     -6.22489890	      0.22852221	     19.94323550	    -15.19310365	      8.75637527	     -1.28355594	     13.21357547	      3.36369226	     -0.22902842	     -9.62311898
      4.57500000	     -7.15957685	     -1.73472071	      9.98122526	     -1.83342098	     -0.02389688	     -0.32521531	     31.63084132	     -3.73559942	     -9.39227971	    -13.05235551	     -2.39212126	      6.59701209	     14.42812743	     -6.32618063	      0.00935776	     19.85356540	    -15.68428233	      8.74945917	     -0.75679365	     13.23014873	      3.58159245	     -0.11810931	     -9.61921935
      4.58000000	     -7.24755506	     -1.78808004	      9.98755016	     -1.82718353	     -0.02473514	     -0.32437854	     31.68230179	     -3.64604298	     -9.51417950	    -13.57504678	     -3.15582085	      6.33585644	     15.53582767	     -6.32674903	     -0.12983308	     19.49650355	    -16.23581453	      8.61934396	     -0.10114886	     13.60794246	      3.83277305	     -0.07755902	     -9.48537655
      4.58500000	     -7.31747871	     -1.99691059	     10.08671194	     -1.82083365	     -0.02543869	     -0.32370784	     31.71159078	     -3.45493045	     -9.79448999	    -14.12155238	     -3.64765970	      6.25559462	     15.70563370	     -6.33504072	     -0.44009627	     19.40692796	    -16.76822548	      8.48466774	      0.40792326	     13.88354068	      4.11720608	      0.13593232	     -9.46703358
      4.59000000	     -7.40316759	     -2.13913761	     10.08297418	     -1.81464803	     -0.02611067	     -0.32273130	     31.79655610	     -3.24240401	     -9.77946977	    -14.64757113	     -4.35560057	      5.92368868	     16.20519131	     -6.26236334	     -0.69687745	     18.93036317	    -17.38179482	      8.28649557	      1.26911472	     14.58787220	      4.36883153	      0.25973214	     -9.31515609
      4.59500000	     -7.48964030	     -2.38412555	     10.05701997	     -1.80835581	     -0.02665809	     -0.32179715	     31.87721926	     -2.90749957	     -9.71691330	    -15.12492494	     -5.10024367	      5.56514838	     16.59739160	     -6.17767985	     -1.05296247	     18.50190400	    -17.99543646	      7.97404860	      1.95364824	     15.27630815	      4.65954837	      0.50718474	     -9.16958249
      4.60000000	     -7.56308665	     -2.64068144	      9.95250959	     -1.80206340	     -0.02709856	     -0.32078486	     31.96281491	     -2.49535501	     -9.40942183	    -15.59139551	     -5.96954561	      5.07579502	     17.24057205	     -6.11981346	     -1.42047253	     18.03980118	    -18.55559993	      7.40780596	      2.44751837	     16.41605086	      4.93409632	      0.78758647	     -8.93497549
      4.60500000	     -7.63422217	     -2.97363396	      9.90252033	     -1.79580640	     -0.02744066	     -0.31982039	     32.07062858	     -2.03181074	     -9.17755995	    -16.13266333	     -6.53038940	      4.77998713	     17.22243941	     -5.96926640	     -1.87691767	     17.52160189	    -19.28816724	      7.13155498	      3.37587558	     16.91626298	      5.21714668	      1.13952122	     -8.79657710
      4.61000000	     -7.70957607	     -3.30197862	      9.75412612	     -1.78954557	     -0.02769965	     -0.31870824	     32.20513618	     -1.47914869	     -8.63891936	    -16.70029489	     -7.14830486	      4.23840512	     17.09755460	     -5.80562706	     -2.33152367	     16.83767050	    -20.02438789	      6.69696440	      4.26951867	     17.60236858	      5.49800157	      1.50068859	     -8.53451248
      4.61500000	     -7.76194904	     -3.62548658	      9.61406912	     -1.78328149	     -0.02784487	     -0.31755591	     32.30693021	     -0.89769537	     -7.95852892	    -17.27982364	     -7.68485393	      3.57646092	     16.85160347	     -5.62373689	     -2.79761017	     16.07933897	    -20.80457237	      6.09572555	      5.16656073	     18.54789754	      5.74958838	      1.84438215	     -8.34077450
      4.62000000	     -7.80272943	     -3.97460469	      9.43974033	     -1.77696265	     -0.02791009	     -0.31640205	     32.40595366	     -0.25745178	     -7.22506105	    -17.89918672	     -8.12892030	      2.90952941	     16.46226019	     -5.43978573	     -3.29825522	     15.28797516	    -21.60422880	      5.42537568	      6.09353098	     19.53303330	      6.00018809	      2.23366441	     -8.08599075
      4.62500000	     -7.82509675	     -4.31333507	      9.25024986	     -1.77062853	     -0.02789036	     -0.31522030	     32.47678315	      0.40670290	     -6.41805222	    -18.53269483	     -8.47806488	      2.16871725	     15.89303008	     -5.24946186	     -3.80069205	     14.45852135	    -22.43920890	      4.64252470	      7.04832207	     20.61645864	      6.22595873	      2.61606205	     -7.83426230
      4.63000000	     -7.81997844	     -4.69220185	      9.05708939	     -1.76411210	     -0.02773509	     -0.31407067	     32.48511430	      1.13483968	     -5.62687634	    -19.16302563	     -8.60027469	      1.42943018	     14.71086985	     -5.10588505	     -4.36051799	     13.67086088	    -23.18068124	      3.43933673	      7.71209213	     22.48465307	      6.46125294	      3.04931474	     -7.59552510
      4.63500000	     -7.77485343	     -4.96556474	      8.83285152	     -1.75770709	     -0.02754887	     -0.31286546	     32.45512006	      1.78150597	     -4.82752999	    -19.83877886	     -8.53058215	      0.82114449	     13.64866605	     -4.94863021	     -4.83104892	     12.71160443	    -24.06309316	      2.35604861	      8.72512501	     23.86734936	      6.60343940	      3.37735180	     -7.32604934
      4.64000000	     -7.74279214	     -5.28456920	      8.61885167	     -1.75112661	     -0.02732307	     -0.31171047	     32.38391959	      2.47242348	     -4.07045961	    -20.43876373	     -8.43781525	      0.13901049	     12.57654302	     -4.75580911	     -5.35921887	     11.77603418	    -24.97596187	      1.16895707	      9.72401896	     25.20140432	      6.80487644	      3.75247608	     -7.10016265
      4.64500000	     -7.73381978	     -5.54568575	      8.41288422	     -1.74462797	     -0.02710259	     -0.31058291	     32.30873752	      3.08093327	     -3.40846365	    -20.97572774	     -8.48834897	     -0.55411724	     12.19860558	     -4.47134043	     -5.82995244	     10.83203462	    -26.05005073	      0.14651662	     10.99519071	     25.74623344	      7.00467244	      4.06068034	     -6.88145599
      4.65000000	     -7.63165923	     -5.79218685	      8.22947537	     -1.73805635	     -0.02670118	     -0.30944541	     32.07041611	      3.71261259	     -2.68836541	    -21.47577479	     -8.18309036	     -1.29033438	     10.77718491	     -4.30963718	     -6.31987210	      9.94284304	    -26.94796241	     -1.57671020	     11.77943145	     27.85396909	      7.11256539	      4.36161618	     -6.72176369
      4.65500000	     -7.61781335	     -6.01798445	      8.01112529	     -1.73151682	     -0.02639352	     -0.30835715	     31.90430554	      4.27280713	     -2.18205655	    -21.89201754	     -8.08687673	     -1.85067986	     10.48166476	     -3.97447608	     -6.77491535	      9.01467447	    -28.09444055	     -2.86994764	     13.01182193	     28.34409043	      7.30857228	      4.64108287	     -6.50798822
      4.66000000	     -7.55902168	     -6.24433895	      7.82938528	     -1.72499044	     -0.02596486	     -0.30721995	     31.61206977	      4.86964252	     -1.54090715	    -22.19460537	     -7.97309861	     -2.73515973	      9.58710157	     -3.67016887	     -7.25292581	      8.15512678	    -29.15205271	     -4.69243839	     13.79367672	     29.87585493	      7.45305780	      4.91245637	     -6.38074651
      4.66500000	     -7.51765996	     -6.42313182	      7.63953877	     -1.71851698	     -0.02554302	     -0.30611156	     31.31908154	      5.36984490	     -1.11492448	    -22.47305728	     -7.64985578	     -3.19234101	      9.05682609	     -3.31038859	     -7.69086167	      7.31865641	    -30.27340088	     -6.52312246	     14.75071195	     31.13470345	      7.60271216	      5.13347669	     -6.22690237
      4.67000000	     -7.47252917	     -6.56870396	      7.47849711	     -1.71215927	     -0.02506818	     -0.30504323	     30.98036310	      5.80915857	     -0.75657554	    -22.67168703	     -7.32288232	     -3.60265331	      8.68820790	     -2.91207410	     -8.08647443	      6.60946794	    -31.43572810	     -8.45775950	     15.59625825	     32.21934820	      7.72639700	      5.31413664	     -6.10596418
      4.67500000	     -7.45220825	     -6.70399011	      7.32798669	     -1.70588277	     -0.02459850	     -0.30400980	     30.63280220	      6.20742000	     -0.48064905	    -22.79534368	     -6.99508032	     -3.93172716	      8.54350348	     -2.43739694	     -8.46409006	      5.97741066	    -32.66754708	    -10.40246594	     16.39865340	     32.98691559	      7.86888660	      5.48702777	     -6.00496704
      4.68000000	     -7.45328581	     -6.85407587	      7.18791515	     -1.69969823	     -0.02412828	     -0.30300415	     30.27844614	      6.59486894	     -0.27406562	    -22.84456679	     -6.70127260	     -4.21628681	      8.53202557	     -1.89020476	     -8.84631021	      5.42284015	    -33.94972941	    -12.40321566	     17.03407615	     33.59181677	      8.02114595	      5.66805489	     -5.92355049
      4.68500000	     -7.39514727	     -6.96474971	      7.11711008	     -1.69362268	     -0.02352986	     -0.30216814	     29.82775003	      6.88586949	     -0.21734388	    -22.83620452	     -6.32244111	     -4.33082438	      8.67697548	     -1.36035581	     -9.15320151	      5.07328704	    -35.29982557	    -14.29310557	     17.53303329	     33.34217398	      8.09885016	      5.81812334	     -5.93262450
